<?xml version="1.0" encoding="UTF-8"?>
<svg width="68px" height="24px" viewBox="0 0 68 24" version="1.1" xmlns="http://www.w3.org/2000/svg" xmlns:xlink="http://www.w3.org/1999/xlink">
    <!-- Generator: Sketch 55 (78076) - https://sketchapp.com -->
    <title>logo-new</title>
    <desc>Created with Sketch.</desc>
    <g id="Work" stroke="none" stroke-width="1" fill="none" fill-rule="evenodd">
        <g id="1280_Onboarding_quote" transform="translate(-749.000000, -851.000000)" fill-rule="nonzero">
            <g id="Group-2" transform="translate(647.000000, 850.000000)">
                <g id="Group">
                    <g id="logo-new" transform="translate(102.000000, 1.000000)">
                        <path d="M19.3371973,3 L3.47957447,3 L4.62195162,-1.05850224e-13 L20.4795745,-1.05850224e-13 L19.3371973,3 Z M18.7361702,4.86029412 L2.87806778,4.86029412 L1.73617021,7.86029412 L17.5871358,7.86029412 L18.7361702,4.86029412 Z M17,10 L1.14189757,10 L0,13 L15.8366919,13 L17,10 Z" id="Shape" fill="#009FDF"></path>
                        <path d="M58.2704991,20.6415083 L61.1939796,20.6415083 C62.0378039,20.7457751 62.8763835,20.4082618 63.4304421,19.741372 C63.8314824,19.1982172 64.0334734,18.5255005 64.0005208,17.8427653 C64.056259,16.9602966 63.6801149,16.1078327 62.9992287,15.5735141 C62.456543,15.206024 61.8111949,15.0357214 61.1647447,15.0894072 L58.2704991,15.0894072 L58.2704991,20.6415083 Z M54.4334311,23.9924358 L54.4334311,4.0078975 L66.9970882,4.0078975 L65.8934743,7.35882501 L58.2704991,7.35882501 L58.2704991,11.7838647 L61.3766971,11.7838647 C63.8835815,11.7838647 65.1845303,12.4041267 66.0835005,13.1983646 C67.3856327,14.3917432 68.088419,16.1362722 67.9910715,17.9335353 C68.0913547,19.8744212 67.2359925,21.7360305 65.7180655,22.8805028 C64.5121298,23.7428182 63.2477245,23.9848717 60.6750618,23.9848717 L54.4334311,23.9924358 Z M43.3095881,23.9924358 L43.3095881,7.35126084 L37.7257405,7.35126084 L37.7257405,4.0078975 L53.2274954,4.0078975 L52.1238816,7.35882501 L47.1831997,7.35882501 L47.1831997,24 L43.3095881,23.9924358 Z M27.837068,12.0107898 L30.0296784,12.0107898 C30.4781109,12.0424962 30.9286167,12.0068265 31.3671706,11.9048915 C32.3064914,11.5943397 32.9132066,10.6524562 32.8289108,9.63564032 C32.9548344,8.62022231 32.3267425,7.66790454 31.3671706,7.41933838 C30.8883403,7.30428841 30.3964149,7.25846759 29.9054304,7.28318331 L27.837068,7.28318331 L27.837068,12.0107898 Z M27.837068,15.4676157 L27.837068,20.7095859 L30.5120526,20.7095859 C31.2492602,20.7967991 31.9904762,20.5853655 32.580415,20.1195806 C33.130861,19.59174 33.4255481,18.8375887 33.3843721,18.0621262 C33.3960165,17.4501617 33.2165944,16.8506366 32.8727631,16.3526237 C32.3026844,15.5962066 31.6010491,15.4524874 30.4024221,15.4524874 L27.837068,15.4676157 Z M34.0202291,13.3572122 L34.0202291,13.4252897 C34.6718635,13.6849115 35.2808036,14.0472272 35.8254783,14.4994019 C36.9421166,15.4585009 37.5501853,16.9110013 37.4626273,18.410078 C37.4626273,21.1407436 36.0593567,23.1149921 33.7571159,23.7049974 C32.8394228,23.9371711 31.8942176,24.031429 30.9505747,23.9848717 L24,23.9848717 L24,4.0078975 L30.1831611,4.0078975 C31.1652274,3.97074065 32.1478237,4.0648078 33.1066415,4.28777181 C35.343104,4.90803379 36.8121529,6.50407375 36.8121529,9.02294251 C36.8490669,10.2366122 36.4024651,11.4126555 35.5769824,12.2755358 C35.1432001,12.7313747 34.6265373,13.0938547 34.0567726,13.3420838 L34.0202291,13.3572122 Z" id="Shape" fill="#0A2973"></path>
                    </g>
                </g>
            </g>
        </g>
    </g>
</svg>