<svg width="77" height="16" viewBox="0 0 77 16" fill="none" xmlns="http://www.w3.org/2000/svg">
    <g clip-path="url(#clip0_2015_64773)">
        <path d="M0.0136002 1.11475H4.73064C8.0204 1.11475 10.1682 2.56929 10.1682 5.65511V5.73667C10.1682 8.83605 7.9252 10.2091 4.78504 10.2091H2.73232V15.7961H0V1.11475H0.0136002ZM4.73064 8.23797C6.53864 8.23797 7.50384 7.35434 7.50384 5.73667V5.65511C7.50384 3.91509 6.47064 3.23539 4.73064 3.23539H2.74592V8.23797H4.73064Z" fill="#171717"/>
        <path d="M17.2365 15.7961H12.0029V1.11475H21.2196V3.27618H14.7081V6.98731H17.2909C20.5127 6.98731 22.4838 8.36029 22.4838 11.2965V11.3781C22.4838 14.2193 20.6078 15.7961 17.2365 15.7961ZM17.155 13.7027C18.9629 13.7027 19.8601 12.8871 19.8601 11.3645V11.283C19.8601 9.78765 18.9629 8.95845 17.0462 8.95845H14.7081V13.7027H17.155Z" fill="#171717"/>
        <path d="M24.4551 1.11459H27.1875V7.76199L32.8153 1.0874H35.7516L29.6752 8.10181L36.0643 15.7824H32.8425L27.1875 8.94469V15.796H24.4551V1.11459Z" fill="#171717"/>
        <path d="M42.875 1.12842H45.6073V13.6212H51.8605V15.7962H42.875V1.12842Z" fill="#171717"/>
        <path d="M53.7637 1.88968C53.7637 1.07405 54.4161 0.44873 55.2453 0.44873C56.0746 0.44873 56.7271 1.06045 56.7271 1.88968C56.7271 2.69172 56.0746 3.30344 55.2453 3.30344C54.4161 3.30344 53.7637 2.69172 53.7637 1.88968ZM54.0355 5.07065H56.5232V15.7962H54.0355V5.07065Z" fill="#171717"/>
        <path d="M59.9633 6.93288H58.5088V5.07052H59.9633V3.62957C59.9633 1.26423 61.2818 0 63.5794 0C64.1778 0 64.5442 0.0679694 64.993 0.203908V2.13424C64.7074 2.02549 64.3129 1.94393 63.8649 1.94393C62.8585 1.94393 62.4513 2.59643 62.4513 3.52082V5.05693H64.8977V6.93288H62.4513V15.7961H59.9633V6.93288Z" fill="#171717"/>
        <path d="M65.835 10.5488V10.3857C65.835 7.05516 68.1182 4.83936 71.1638 4.83936C73.8278 4.83936 76.2342 6.41624 76.2342 10.2497V10.9702H68.3766C68.4582 12.9957 69.4918 14.1511 71.327 14.1511C72.8222 14.1511 73.6102 13.5531 73.787 12.5063H76.1934C75.8398 14.7629 74.0182 15.9999 71.2726 15.9999C68.1046 15.9999 65.835 13.9337 65.835 10.5488ZM73.7734 9.31177C73.651 7.46297 72.7134 6.64734 71.1638 6.64734C69.6678 6.64734 68.6622 7.65329 68.4174 9.31177H73.7734Z" fill="#171717"/>
    </g>
    <defs>
        <clipPath id="clip0_2015_64773">
            <rect width="77" height="16" fill="white"/>
        </clipPath>
    </defs>
</svg>
